<svg viewBox="0 0 10 10" fill="none" xmlns="http://www.w3.org/2000/svg">
  <path d="M1.77199 9.15717C1.53391 9.15717 1.29587 9.06604 1.11451 8.88468C0.750893 8.52106 0.750893 7.93333 1.11451 7.56971L7.6893 0.994881C8.05292 0.631264 8.64065 0.631264 9.00426 0.994881C9.36788 1.3585 9.36788 1.94623 9.00426 2.30985L2.42947 8.88468C2.24717 9.06604 2.01002 9.15717 1.77199 9.15717Z" />
  <path d="M8.34583 9.15717C8.10775 9.15717 7.86971 9.06604 7.68835 8.88468L1.11353 2.30985C0.749916 1.94623 0.749916 1.3585 1.11353 0.994881C1.47715 0.631264 2.06488 0.631264 2.4285 0.994881L9.00331 7.56971C9.36693 7.93333 9.36693 8.52106 9.00331 8.88468C8.822 9.06604 8.58391 9.15717 8.34583 9.15717Z" />
</svg>
