<?xml version="1.0" encoding="UTF-8"?>
<svg xmlns="http://www.w3.org/2000/svg" xml:space="preserve" version="1.1" x="0px" y="0px" viewBox="0 0 60.963 60.842">
  <path transform="rotate(-45, 30.493, 30.3605)" id="svg_1" d="m52.03271,46.96311l-16.64755,-16.64821l16.55728,-16.55721c1.35024,-1.35097 1.35024,-3.54094 0,-4.89118c-1.35098,-1.35023 -3.54022,-1.35023 -4.8912,0l-16.55728,16.55721l-16.55654,-16.55721c-1.35098,-1.35023 -3.54022,-1.35023 -4.8912,0c-1.35098,1.35097 -1.35098,3.54094 0,4.89118l16.55654,16.55721l-16.64903,16.64821c-1.35098,1.35097 -1.35098,3.5402 0,4.89118c0.67549,0.67549 1.56036,1.01286 2.44597,1.01286s1.77048,-0.33737 2.44597,-1.01286l16.64829,-16.64821l16.64755,16.64821c0.67549,0.67549 1.56036,1.01286 2.44597,1.01286s1.77048,-0.33737 2.44597,-1.01286c1.3495,-1.35023 1.3495,-3.5402 -0.00074,-4.89118z"/>
</svg>
