<svg viewBox="0 0 28 69" xmlns="http://www.w3.org/2000/svg">
  <path d="M5.06284 53.2872C5.06284 54.6207 9.06539 55.7044 14.0006 55.7044C18.9369 55.7044 22.9372 54.6207 22.9372 53.2872C22.9372 52.2314 20.4282 51.3358 16.9373 51.0055C17.0056 50.5912 16.9989 50.2766 16.9989 50.2766C16.9989 50.2766 16.2465 46.7006 17.2496 44.6271C18.2562 42.557 17.8789 39.4792 17.6281 39.0403C17.375 38.6003 17.0638 36.2794 17.6281 35.3356C18.1924 34.394 18.3827 32.2612 18.6939 29.0009C19.0074 25.7395 18.1106 25.1047 18.1106 25.1047V22.4087H18.6939C20.5771 22.2833 20.8279 18.3927 21.0787 16.6361C21.3328 14.8783 22.5879 13.2459 21.0787 11.1736C19.5728 9.10344 15.9308 8.34883 15.9308 8.34883L15.9946 6.46567C15.9946 6.46567 16.9686 5.64949 16.8757 2.82362C16.7783 0 14.4092 0 14.4092 0H13.593C13.593 0 11.224 0 11.1299 2.82474C11.0359 5.65061 12.0088 6.46679 12.0088 6.46679L12.0715 8.34883C12.0715 8.34883 8.43058 9.10232 6.92361 11.1736C5.41663 13.2448 6.6717 14.8783 6.92361 16.6361C7.17664 18.3916 7.42743 22.2822 9.31059 22.4087H9.89502V25.1047C9.89502 25.1047 8.9971 25.7407 9.31059 29.0009C9.62295 32.2612 9.81105 34.394 10.3764 35.3356C10.9407 36.2783 10.6261 38.5992 10.3764 39.0415C10.1234 39.4815 9.74723 42.5581 10.7526 44.6283C11.758 46.6995 11.0045 50.2755 11.0045 50.2755C11.0045 50.2755 10.9967 50.5923 11.065 51.0066C7.57297 51.338 5.06284 52.2314 5.06284 53.2872Z" fill="#F8D500"/>
  <path d="M24.1004 58.5403C24.4218 58.1407 24.5908 57.6727 24.5763 57.1263C24.5214 54.8524 23.5754 54.3553 23.3122 54.2601C21.0988 56.3023 15.109 56.4277 13.6938 56.4277C12.329 56.4277 6.72542 56.3034 4.34179 54.4639C3.96449 54.774 3.46179 55.4906 3.42149 57.1229C3.40917 57.6693 3.57599 58.1351 3.89508 58.5359C1.48794 59.2009 0 60.1033 0 61.0953V65.8043C0 65.8043 2.76092 69.0052 14.8145 68.816C26.8681 68.6279 28 64.959 28 64.959V60.8445H27.9519C27.7257 59.9533 26.296 59.1505 24.1004 58.5403Z" fill="#F8D500"/>
</svg>
